<svg width="60" height="60" viewBox="0 0 60 60" fill="none" xmlns="http://www.w3.org/2000/svg">
<path fill-rule="evenodd" clip-rule="evenodd" d="M0 30C0 13.4315 13.4315 0 30 0C46.5685 0 60 13.4315 60 30C60 46.5685 46.5685 60 30 60C13.4315 60 0 46.5685 0 30Z" fill="white"/>
<path fill-rule="evenodd" clip-rule="evenodd" d="M30 22.0267C32.4411 22.0267 34.0878 23.0811 35.0267 23.9622L38.6956 20.38C36.4422 18.2856 33.51 17 30 17C24.9156 17 20.5245 19.9178 18.3867 24.1644L22.59 27.4289C23.6445 24.2944 26.5622 22.0267 30 22.0267Z" fill="#EA4335"/>
<path fill-rule="evenodd" clip-rule="evenodd" d="M42.48 30.2889C42.48 29.22 42.3933 28.44 42.2056 27.6311H30V32.4555H37.1644C37.02 33.6544 36.24 35.46 34.5067 36.6733L38.6089 39.8511C41.0644 37.5833 42.48 34.2467 42.48 30.2889Z" fill="#4285F4"/>
<path fill-rule="evenodd" clip-rule="evenodd" d="M22.6044 32.5711C22.33 31.7622 22.1711 30.8955 22.1711 30C22.1711 29.1044 22.33 28.2378 22.59 27.4289L18.3867 24.1644C17.5056 25.9267 17 27.9055 17 30C17 32.0944 17.5056 34.0733 18.3867 35.8355L22.6044 32.5711Z" fill="#FBBC05"/>
<path fill-rule="evenodd" clip-rule="evenodd" d="M30 43C33.51 43 36.4567 41.8444 38.6089 39.8511L34.5067 36.6733C33.4089 37.4389 31.9356 37.9733 30 37.9733C26.5622 37.9733 23.6444 35.7056 22.6044 32.5711L18.4011 35.8356C20.5389 40.0822 24.9156 43 30 43Z" fill="#34A853"/>
</svg>
