<?xml version="1.0" encoding="UTF-8" standalone="no"?>
<!-- Created with Inkscape (http://www.inkscape.org/) -->

<svg
   xmlns:dc="http://purl.org/dc/elements/1.1/"
   xmlns:cc="http://creativecommons.org/ns#"
   xmlns:rdf="http://www.w3.org/1999/02/22-rdf-syntax-ns#"
   xmlns:svg="http://www.w3.org/2000/svg"
   xmlns="http://www.w3.org/2000/svg"
   xmlns:sodipodi="http://sodipodi.sourceforge.net/DTD/sodipodi-0.dtd"
   xmlns:inkscape="http://www.inkscape.org/namespaces/inkscape"
   width="134.29073mm"
   height="68.633034mm"
   viewBox="0 0 134.29073 68.633034"
   version="1.1"
   id="svg8"
   sodipodi:docname="logo2.svg"
   inkscape:version="0.92.5 (0.92.5+68)"
   inkscape:export-filename="/home/fabiotovar/Proyectos/Spyfall/spyfall-webapp/assets/logo.png"
   inkscape:export-xdpi="192.02275"
   inkscape:export-ydpi="192.02275">
  <defs
     id="defs2" />
  <sodipodi:namedview
     id="base"
     pagecolor="#ffffff"
     bordercolor="#666666"
     borderopacity="1.0"
     inkscape:pageopacity="0.0"
     inkscape:pageshadow="2"
     inkscape:zoom="1.4"
     inkscape:cx="183.68722"
     inkscape:cy="111.58417"
     inkscape:document-units="mm"
     inkscape:current-layer="g4599"
     showgrid="false"
     inkscape:window-width="1920"
     inkscape:window-height="1044"
     inkscape:window-x="0"
     inkscape:window-y="0"
     inkscape:window-maximized="1"
     inkscape:snap-bbox="false"
     fit-margin-top="0"
     fit-margin-left="0"
     fit-margin-right="0"
     fit-margin-bottom="0" />
  <metadata
     id="metadata5">
    <rdf:RDF>
      <cc:Work
         rdf:about="">
        <dc:format>image/svg+xml</dc:format>
        <dc:type
           rdf:resource="http://purl.org/dc/dcmitype/StillImage" />
        <dc:title />
      </cc:Work>
    </rdf:RDF>
  </metadata>
  <g
     inkscape:label="Ebene 1"
     inkscape:groupmode="layer"
     id="layer1"
     transform="translate(-38.564386,-104.3795)">
    <g
       id="g4599">
      <g
         transform="scale(1.0399933,0.96154464)"
         style="font-style:normal;font-weight:normal;font-size:139.19921875px;line-height:1.25;font-family:sans-serif;letter-spacing:0px;word-spacing:0px;fill:#ffaaaa;fill-opacity:1;stroke:none;stroke-width:0.72499591"
         id="text4528" />
      <g
         aria-label="S"
         transform="scale(1.0112118,0.98891247)"
         style="font-style:normal;font-weight:normal;font-size:97.82499695px;line-height:1.25;font-family:sans-serif;letter-spacing:0px;word-spacing:0px;fill:#fee5e4;fill-opacity:1;stroke:none;stroke-width:0.50950521"
         id="text4532">
        <path
           d="m 117.69328,131.90138 q -0.68478,-0.68478 -0.88043,-2.3478 -0.19565,-1.76085 0.0978,-4.10865 0.29347,-2.3478 0.88042,-4.89125 0.68478,-2.64128 1.76085,-5.0869 -1.36955,-0.68478 -3.22822,-0.7826 -1.76085,-0.19565 -3.5217,0.3913 -1.76085,0.48912 -3.42388,1.85867 -1.66302,1.36955 -2.7391,3.71735 -1.46737,3.03258 -0.97825,6.2608 0.48913,3.1304 1.9565,6.35863 1.5652,3.22822 3.71735,6.55427 2.15215,3.22823 4.10865,6.35863 1.9565,3.1304 3.22823,6.2608 1.36955,3.03257 1.27172,5.8695 -0.19565,4.40212 -2.3478,7.23905 -2.05432,2.83692 -5.28255,4.40212 -3.22822,1.5652 -7.14122,1.9565 -3.913,0.3913 -7.826003,-0.0978 -3.913,-0.48913 -7.4347,-1.76085 -3.423875,-1.27173 -5.67385,-3.03258 -2.15215,-1.85867 -2.836925,-4.10865 -0.58695,-2.24997 1.271725,-4.59777 2.836925,4.01082 7.336875,6.45645 4.597775,2.44562 9.097725,3.32605 4.499953,0.88042 8.021653,0 3.5217,-0.88043 4.40212,-3.71735 0.3913,-1.36955 -1.36955,-3.913 -1.66302,-2.64128 -4.40212,-5.8695 -2.7391,-3.32605 -5.869503,-7.14123 -3.1304,-3.81517 -5.576025,-7.72817 -3.1304,-5.0869 -3.815175,-9.58685 -0.58695,-4.49995 1.9565,-10.27163 1.76085,-3.913 4.597775,-6.45645 2.836925,-2.64127 6.162978,-3.81517 3.32605,-1.27173 6.74992,-1.1739 3.42388,0 6.2608,1.27172 1.36955,0.68478 2.64128,1.36955 1.27172,0.58695 2.3478,1.1739 0.7826,-1.07607 1.46737,-1.9565 0.7826,-0.88042 1.5652,-1.5652 2.24998,0.58695 3.81518,1.36955 1.36955,0.68478 2.05432,1.66303 0.7826,0.97825 -0.29347,2.3478 -0.48913,0.68477 -2.24998,3.1304 -1.76085,2.44562 -3.81517,5.38037 -2.05433,2.83693 -3.81518,5.4782 -1.76085,2.64128 -2.24997,3.81518 z"
           style="font-style:normal;font-variant:normal;font-weight:normal;font-stretch:normal;font-family:DelisiaW00-Regular;-inkscape-font-specification:DelisiaW00-Regular;fill:#fee5e4;fill-opacity:1;stroke-width:0.50950521"
           id="path4634" />
      </g>
      <g
         aria-label="Spyfall"
         transform="matrix(0.24819995,0,0,0.24272661,-7.6371538,16.311944)"
         style="font-style:normal;font-weight:normal;font-size:40px;line-height:1.25;font-family:sans-serif;text-align:center;letter-spacing:0px;word-spacing:0px;text-anchor:middle;fill:#e51b23;fill-opacity:1;stroke:none"
         id="flowRoot3713">
        <path
           d="m 274.4065,462.51044 q -1.344,-1.344 -1.728,-4.608 -0.384,-3.456 0.192,-8.064 0.576,-4.608 1.728,-9.6 1.344,-5.184 3.456,-9.984 -2.688,-1.344 -6.336,-1.536 -3.456,-0.384 -6.912,0.768 -3.456,0.96 -6.72,3.648 -3.264,2.688 -5.376,7.296 -2.88,5.952 -1.92,12.288 0.96,6.144 3.84,12.48 3.072,6.336 7.296,12.864 4.224,6.336 8.064,12.48 3.84,6.144 6.336,12.288 2.688,5.952 2.496,11.52 -0.384,8.64 -4.608,14.208 -4.032,5.568 -10.368,8.64 -6.336,3.072 -14.016,3.84 -7.68,0.768 -15.36,-0.192 -7.68,-0.96 -14.592,-3.456 -6.72,-2.496 -11.136,-5.952 -4.224,-3.648 -5.568,-8.064 -1.152,-4.416 2.496,-9.024 5.568,7.872 14.4,12.672 9.024,4.8 17.856,6.528 8.832,1.728 15.744,0 6.912,-1.728 8.64,-7.296 0.768,-2.688 -2.688,-7.68 -3.264,-5.184 -8.64,-11.52 -5.376,-6.528 -11.52,-14.016 -6.144,-7.488 -10.944,-15.168 -6.144,-9.984 -7.488,-18.816 -1.152,-8.832 3.84,-20.16 3.456,-7.68 9.024,-12.672 5.568,-5.184 12.096,-7.488 6.528,-2.496 13.248,-2.304 6.72,0 12.288,2.496 2.688,1.344 5.184,2.688 2.496,1.152 4.608,2.304 1.536,-2.112 2.88,-3.84 1.536,-1.728 3.072,-3.072 4.416,1.152 7.488,2.688 2.688,1.344 4.032,3.264 1.536,1.92 -0.576,4.608 -0.96,1.344 -4.416,6.144 -3.456,4.8 -7.488,10.56 -4.032,5.568 -7.488,10.752 -3.456,5.184 -4.416,7.488 z"
           style="font-style:normal;font-variant:normal;font-weight:normal;font-stretch:normal;font-size:192px;font-family:DelisiaW00-Regular;-inkscape-font-specification:DelisiaW00-Regular;text-align:center;text-anchor:middle;fill:#e51b23;fill-opacity:1"
           id="path4637" />
        <path
           d="m 367.0285,479.79044 q 0.576,5.952 -2.304,15.168 -2.88,9.216 -7.872,18.432 -3.84,6.72 -8.64,12.672 -4.608,5.952 -9.792,9.792 -5.184,3.84 -10.752,5.184 -5.568,1.152 -10.944,-1.536 -2.688,-1.344 -4.992,-2.688 -2.304,-1.344 -4.416,-3.264 -3.456,9.024 -6.72,17.088 -3.072,8.256 -5.184,14.784 -2.112,6.528 -3.072,10.944 -0.96,4.416 0,5.568 -0.768,3.84 -4.8,3.648 -4.032,0 -8.256,-3.072 -4.224,-3.072 -6.912,-8.64 -2.88,-5.568 -1.152,-12.48 0.768,-2.88 3.264,-9.408 2.496,-6.336 5.952,-14.784 3.264,-8.448 7.104,-17.856 3.84,-9.408 7.296,-18.048 3.456,-8.832 6.144,-15.936 2.688,-7.104 3.648,-10.944 0.576,-2.112 0.768,-4.608 0.192,-2.688 -1.536,-5.952 0.384,-3.648 4.224,-3.84 3.84,-0.192 8.064,2.304 4.416,2.496 7.68,7.488 3.456,4.8 2.88,11.328 6.144,-9.792 10.944,-14.016 4.8,-4.416 9.024,-6.144 3.648,-1.536 6.912,0.192 3.264,1.728 5.952,4.224 3.264,3.264 5.184,7.104 1.92,3.648 2.304,7.296 z m -56.64,46.848 q 4.032,1.536 8.448,-0.96 4.608,-2.688 9.024,-7.872 4.416,-5.184 8.256,-11.904 3.84,-6.912 6.528,-13.824 2.688,-6.912 3.648,-12.864 1.152,-5.952 0,-9.408 -4.032,3.264 -8.64,9.024 -4.608,5.76 -9.408,13.248 -4.608,7.488 -9.216,16.32 -4.608,8.832 -8.64,18.24 z"
           style="font-style:normal;font-variant:normal;font-weight:normal;font-stretch:normal;font-size:192px;font-family:DelisiaW00-Regular;-inkscape-font-specification:DelisiaW00-Regular;text-align:center;text-anchor:middle;fill:#e51b23;fill-opacity:1"
           id="path4639" />
        <path
           d="m 434.6155,460.39844 q 2.688,-0.96 6.336,1.152 3.648,2.112 6.528,5.952 2.88,3.84 4.032,8.64 1.344,4.8 -0.384,9.216 -4.032,9.408 -8.064,19.008 -3.84,9.408 -8.064,19.008 -4.032,9.408 -8.64,18.624 -4.608,9.408 -10.368,18.24 -5.184,8.832 -11.712,14.976 -6.528,6.144 -13.248,9.984 -6.528,3.84 -12.864,5.568 -6.144,1.728 -10.752,1.92 -4.416,0.192 -6.72,-1.152 -2.496,-1.344 -1.536,-3.84 9.984,-2.304 19.968,-11.904 9.984,-9.6 20.16,-29.76 3.84,-7.488 7.296,-15.168 3.456,-7.68 6.912,-15.36 -7.104,11.328 -13.824,18.624 -6.72,7.296 -12.096,7.296 -4.416,0 -8.256,-2.496 -3.84,-2.688 -7.104,-5.184 -3.648,-2.688 -4.224,-7.104 -0.576,-4.608 0.384,-8.832 1.92,-8.64 6.72,-19.584 4.8,-11.136 9.024,-22.08 1.728,-4.224 2.496,-6.912 0.768,-2.688 -0.96,-5.952 0.384,-2.304 2.688,-2.688 2.304,-0.576 5.184,0.576 2.88,0.96 5.952,3.456 3.072,2.304 5.184,5.76 2.112,3.264 2.688,7.296 0.768,4.032 -1.152,8.448 -10.368,24.384 -14.784,35.52 -4.416,11.136 -1.152,11.328 1.344,0.192 4.416,-3.456 3.072,-3.648 7.104,-9.6 4.032,-5.952 8.64,-13.632 4.608,-7.872 9.024,-15.936 4.608,-8.064 8.448,-15.744 4.032,-7.872 6.72,-14.208 z"
           style="font-style:normal;font-variant:normal;font-weight:normal;font-stretch:normal;font-size:192px;font-family:DelisiaW00-Regular;-inkscape-font-specification:DelisiaW00-Regular;text-align:center;text-anchor:middle;fill:#e51b23;fill-opacity:1"
           id="path4641" />
        <path
           d="m 471.1645,473.45444 q 3.264,-8.256 6.144,-15.552 3.072,-7.488 5.184,-13.056 2.304,-5.952 5.568,-11.136 3.264,-5.184 7.104,-9.024 3.84,-3.84 7.872,-5.952 4.224,-2.112 8.448,-1.92 3.072,0.192 6.912,2.112 3.84,1.728 7.296,4.608 3.648,2.88 6.144,6.336 2.688,3.264 3.264,6.528 0.192,2.688 -1.344,5.76 -1.536,2.88 -3.84,6.336 -2.304,3.264 -4.8,7.104 -2.496,3.84 -4.032,8.064 -3.456,-0.192 -4.608,-4.032 -0.96,-4.032 -0.576,-9.408 0.576,-5.376 1.728,-10.752 1.344,-5.376 2.496,-8.64 -4.416,1.536 -8.448,8.064 -3.84,6.528 -7.488,16.32 -1.536,3.84 -3.264,8.256 -1.728,4.416 -3.456,9.216 4.8,0 8.64,0.384 3.84,0.192 6.528,0.96 0.576,0.384 1.152,1.344 0.768,0.96 0.96,2.112 0.384,0.96 0.192,1.728 -0.192,0.768 -1.344,0.768 -2.688,0 -7.872,0.192 -5.184,0.192 -11.52,0.576 -4.608,11.904 -9.408,24.192 -4.8,12.288 -8.448,22.656 -3.648,10.176 -5.568,17.28 -1.92,7.104 -0.96,8.448 -0.384,2.496 -2.496,3.264 -2.112,0.768 -4.8,0 -2.688,-0.576 -5.76,-2.688 -2.88,-2.112 -4.992,-5.376 -2.112,-3.072 -3.072,-7.104 -0.96,-4.032 0.192,-8.64 0.576,-1.92 2.304,-6.912 1.728,-4.992 4.224,-11.712 2.688,-6.912 5.76,-14.976 3.072,-8.064 6.336,-16.32 l -10.56,0.768 q -1.152,0 -1.344,-1.344 -0.192,-1.536 0.384,-3.264 0.576,-1.92 1.728,-3.456 1.344,-1.536 3.072,-1.536 z"
           style="font-style:normal;font-variant:normal;font-weight:normal;font-stretch:normal;font-size:192px;font-family:DelisiaW00-Regular;-inkscape-font-specification:DelisiaW00-Regular;text-align:center;text-anchor:middle;fill:#e51b23;fill-opacity:1"
           id="path4643" />
        <path
           d="m 612.2785,483.24644 q 2.112,0.384 3.648,3.264 1.536,2.688 -1.152,8.448 -2.688,6.336 -7.68,14.4 -4.992,7.872 -10.752,15.168 -5.76,7.104 -11.904,12.096 -5.952,4.8 -10.752,4.8 -4.416,0 -8.448,-2.496 -3.84,-2.688 -7.104,-5.184 -2.304,-1.92 -3.456,-4.608 -0.96,-2.688 -0.768,-5.568 -3.264,4.224 -6.912,8.064 -3.648,3.84 -7.68,6.336 -3.84,2.496 -7.68,3.264 -3.84,0.768 -7.296,-1.152 -3.648,-2.112 -6.144,-4.224 -2.304,-2.112 -4.992,-4.224 -5.184,-4.416 -4.992,-12.288 0.192,-8.064 4.032,-17.088 3.84,-9.024 10.368,-17.856 6.528,-8.832 13.824,-14.976 7.488,-6.144 14.784,-8.448 7.296,-2.496 12.864,1.344 5.376,3.84 8.064,7.872 2.88,3.84 3.456,7.104 0.576,3.072 -0.768,5.184 -1.152,1.92 -3.648,1.92 -2.88,-5.376 -10.56,-1.728 -7.488,3.456 -16.128,15.744 -3.648,5.184 -6.72,10.944 -3.072,5.568 -4.992,10.56 -1.92,4.8 -2.496,8.256 -0.576,3.456 0.576,4.224 1.344,0.96 3.84,-0.768 2.688,-1.92 5.952,-5.376 3.456,-3.648 7.104,-8.64 3.648,-4.992 6.912,-10.176 3.456,-5.184 6.144,-10.176 2.88,-4.992 4.416,-8.832 2.688,-1.728 6.336,-0.384 3.648,1.152 6.72,4.224 3.072,2.88 4.608,7.104 1.536,4.032 0.192,7.872 -1.92,5.184 -3.648,9.984 -1.536,4.608 -2.496,8.256 -0.96,3.456 -1.344,5.568 -0.192,1.92 0.768,1.92 1.92,0 5.952,-4.8 4.224,-4.8 9.216,-12.096 5.184,-7.296 10.56,-16.128 5.568,-8.832 10.176,-16.704 z"
           style="font-style:normal;font-variant:normal;font-weight:normal;font-stretch:normal;font-size:192px;font-family:DelisiaW00-Regular;-inkscape-font-specification:DelisiaW00-Regular;text-align:center;text-anchor:middle;fill:#e51b23;fill-opacity:1"
           id="path4645" />
        <path
           d="m 631.2655,432.36644 q 1.536,-4.224 2.304,-6.72 0.96,-2.688 -0.768,-5.952 0.384,-2.304 2.688,-2.688 2.304,-0.576 5.184,0.576 2.88,0.96 5.952,3.456 3.072,2.304 5.184,5.76 2.112,3.264 2.688,7.296 0.768,4.032 -1.152,8.448 -3.456,8.064 -7.68,17.856 -4.032,9.792 -8.064,19.968 -3.84,9.984 -7.488,19.392 -3.648,9.408 -6.144,16.896 -2.304,7.296 -3.456,11.904 -0.96,4.416 0.192,4.416 1.92,0.192 6.528,-4.608 4.8,-4.8 10.56,-12.096 5.76,-7.488 11.712,-16.128 5.952,-8.832 10.56,-16.704 1.152,0.192 2.112,0.96 0.96,0.768 1.344,2.304 0.576,1.344 0.384,3.456 -0.192,2.112 -1.536,4.992 -2.688,6.336 -8.256,14.4 -5.376,7.872 -11.904,14.976 -6.336,7.104 -13.056,12.096 -6.528,4.8 -11.328,4.8 -4.416,0 -8.256,-2.496 -3.84,-2.688 -7.104,-5.184 -3.648,-2.688 -4.224,-7.104 -0.576,-4.608 0.384,-8.832 0.576,-2.88 2.88,-9.216 2.304,-6.528 5.376,-14.784 3.264,-8.256 6.912,-17.472 3.648,-9.216 6.912,-17.664 3.456,-8.64 6.144,-15.552 2.88,-7.104 4.416,-10.752 z"
           style="font-style:normal;font-variant:normal;font-weight:normal;font-stretch:normal;font-size:192px;font-family:DelisiaW00-Regular;-inkscape-font-specification:DelisiaW00-Regular;text-align:center;text-anchor:middle;fill:#e51b23;fill-opacity:1"
           id="path4647" />
        <path
           d="m 677.7655,432.36644 q 1.536,-4.224 2.304,-6.72 0.96,-2.688 -0.768,-5.952 0.384,-2.304 2.688,-2.688 2.304,-0.576 5.184,0.576 2.88,0.96 5.952,3.456 3.072,2.304 5.184,5.76 2.112,3.264 2.688,7.296 0.768,4.032 -1.152,8.448 -3.456,8.064 -7.68,17.856 -4.032,9.792 -8.064,19.968 -3.84,9.984 -7.488,19.392 -3.648,9.408 -6.144,16.896 -2.304,7.296 -3.456,11.904 -0.96,4.416 0.192,4.416 1.92,0.192 6.528,-4.608 4.8,-4.8 10.56,-12.096 5.76,-7.488 11.712,-16.128 5.952,-8.832 10.56,-16.704 1.152,0.192 2.112,0.96 0.96,0.768 1.344,2.304 0.576,1.344 0.384,3.456 -0.192,2.112 -1.536,4.992 -2.688,6.336 -8.256,14.4 -5.376,7.872 -11.904,14.976 -6.336,7.104 -13.056,12.096 -6.528,4.8 -11.328,4.8 -4.416,0 -8.256,-2.496 -3.84,-2.688 -7.104,-5.184 -3.648,-2.688 -4.224,-7.104 -0.576,-4.608 0.384,-8.832 0.576,-2.88 2.88,-9.216 2.304,-6.528 5.376,-14.784 3.264,-8.256 6.912,-17.472 3.648,-9.216 6.912,-17.664 3.456,-8.64 6.144,-15.552 2.88,-7.104 4.416,-10.752 z"
           style="font-style:normal;font-variant:normal;font-weight:normal;font-stretch:normal;font-size:192px;font-family:DelisiaW00-Regular;-inkscape-font-specification:DelisiaW00-Regular;text-align:center;text-anchor:middle;fill:#e51b23;fill-opacity:1"
           id="path4649" />
      </g>
    </g>
  </g>
</svg>
